<?xml version="1.0"?>
<svg xmlns="http://www.w3.org/2000/svg" xmlns:xlink="http://www.w3.org/1999/xlink" version="1.1" id="Layer_1" x="0px" y="0px" viewBox="0 0 512 512" style="enable-background:new 0 0 512 512;" xml:space="preserve" width="512px" height="512px" class=""><g><path style="fill:#675751" d="M510.35,226.954C495.925,99.248,387.562,0,256,0C114.615,0,0,114.615,0,256  c0,120.677,83.507,221.835,195.883,248.883L510.35,226.954z" data-original="#937D75" class="" data-old_color="#937D75"/><path style="fill:#4C3B35" d="M512,256c0-9.823-0.573-19.511-1.65-29.046L435.896,152.5l-71.611-19.999l-94.143-94.143L256,92.5  l-30,65H99.334l-57.583,88.026v49.224l127.5,127.5L138.5,447.5l57.383,57.383C215.166,509.524,235.293,512,256,512  C397.385,512,512,397.385,512,256z" data-original="#785E55" class="" data-old_color="#5F4A42"/><g>
	<polygon style="fill:#DBDBDB" points="429.041,161.5 405.456,161.5 472.819,269.28 481.999,246.5  " data-original="#FFFFFF" class="active-path" data-old_color="#FFFFFF"/>
	<polygon style="fill:#DBDBDB" points="394.956,161.5 418.541,161.5 351.178,269.28 341.998,246.5  " data-original="#FFFFFF" class="active-path" data-old_color="#FFFFFF"/>
</g><path style="fill:#51A0AA" d="M401.998,256.501l80,10c0,22-18,40-40,40h-30L401.998,256.501z" data-original="#71DFEE" class="" data-old_color="#5AB2BD"/><path style="fill:#8DC0C8" d="M411.998,256.501v50h-30c-22,0-40-18-40-40L411.998,256.501z" data-original="#B3EFF7" class="" data-old_color="#97CAD2"/><polygon style="fill:#307A84" points="411.999,246.501 405.487,256.501 411.999,266.501 481.999,266.501 481.999,246.5 " data-original="#3D95A1" class="" data-old_color="#3D95A1"/><rect x="342" y="246.5" style="fill:#489AA5" width="70" height="20" data-original="#57BAC8" class="" data-old_color="#57BAC8"/><g>
	<polygon style="fill:#DBDBDB" points="117.044,161.5 93.459,161.5 160.821,269.28 170.002,246.5  " data-original="#FFFFFF" class="active-path" data-old_color="#FFFFFF"/>
	<polygon style="fill:#DBDBDB" points="82.959,161.5 106.544,161.5 39.181,269.28 30.001,246.5  " data-original="#FFFFFF" class="active-path" data-old_color="#FFFFFF"/>
</g><polygon style="fill:#8DC0C8" points="226,92.5 256.002,122.5 256.001,172.5 76.106,172.5 76.106,152.5 " data-original="#B3EFF7" class="" data-old_color="#97CAD2"/><polygon style="fill:#51A0AA" points="286,92.5 256,122.5 256.001,172.5 435.896,172.5 435.896,152.5 " data-original="#71DFEE" class="" data-old_color="#5AB2BD"/><polygon style="fill:#307A84" points="256,161.5 238.42,417.5 286,417.5 286,172.5 " data-original="#3D95A1" class="" data-old_color="#3D95A1"/><polygon style="fill:#489AA5" points="256,161.5 226,172.5 226,417.5 256,417.5 " data-original="#57BAC8" class="" data-old_color="#57BAC8"/><polygon style="fill:#51A0AA" points="256,387.5 248.581,417.5 337.5,417.5 337.5,387.5 " data-original="#71DFEE" class="" data-old_color="#5AB2BD"/><rect x="174.5" y="387.5" style="fill:#8DC0C8" width="81.5" height="30" data-original="#B3EFF7" class="" data-old_color="#97CAD2"/><polygon style="fill:#857570" points="236.003,407.5 236,437.5 373.5,427.5 337.5,407.5 " data-original="#AE9B95" class="" data-old_color="#95847E"/><polygon style="fill:#A59894" points="256,407.5 174.5,407.5 138.5,427.5 256,437.5 " data-original="#C9B9B4" class="" data-old_color="#C9B9B4"/><polygon style="fill:#489AA5" points="256,427.5 246,437.5 256,447.5 373.5,447.5 373.5,427.5 " data-original="#57BAC8" class="" data-old_color="#57BAC8"/><rect x="138.5" y="427.5" style="fill:#51A0AA" width="117.5" height="20" data-original="#71DFEE" class="" data-old_color="#5AB2BD"/><path style="fill:#8DC0C8" d="M266,72.5h-10l-6.667,40L286,92.5C286,81.454,277.046,72.5,266,72.5z" data-original="#B3EFF7" class="" data-old_color="#97CAD2"/><path style="fill:#DBDBDB" d="M246,72.5c-11.046,0-20,8.954-20,20l30,20v-40H246z" data-original="#FFFFFF" class="active-path" data-old_color="#FFFFFF"/><polygon style="fill:#857570" points="256,92.5 242.279,142.5 256,172.5 286,172.5 286,92.5 " data-original="#AE9B95" class="" data-old_color="#95847E"/><rect x="226" y="92.5" style="fill:#A59894" width="30" height="80" data-original="#C9B9B4" class="" data-old_color="#C9B9B4"/><path style="fill:#51A0AA" d="M256,32.5l-10,20l10,20c11.046,0,20-8.954,20-20S267.046,32.5,256,32.5z" data-original="#71DFEE" class="" data-old_color="#5AB2BD"/><path style="fill:#8DC0C8" d="M236,52.5c0,11.046,8.954,20,20,20v-40C244.955,32.5,236,41.454,236,52.5z" data-original="#B3EFF7" class="" data-old_color="#97CAD2"/><path style="fill:#51A0AA" d="M90.001,256.501l80,10c0,22-18,40-40,40h-30L90.001,256.501z" data-original="#71DFEE" class="" data-old_color="#5AB2BD"/><path style="fill:#8DC0C8" d="M100.001,256.501v50h-30c-22,0-40-18-40-40L100.001,256.501z" data-original="#B3EFF7" class="" data-old_color="#97CAD2"/><polygon style="fill:#307A84" points="100.001,246.501 93.49,256.501 100.001,266.501 170.002,266.501 170.002,246.5 " data-original="#3D95A1" class="" data-old_color="#3D95A1"/><rect x="30" y="246.5" style="fill:#489AA5" width="70" height="20" data-original="#57BAC8" class="" data-old_color="#57BAC8"/></g> </svg>
