<svg height="496pt" viewBox="0 0 496 496" width="496pt" xmlns="http://www.w3.org/2000/svg"
     xmlns:xlink="http://www.w3.org/1999/xlink">
    <linearGradient id="a" gradientUnits="userSpaceOnUse" x1="248" x2="248" y1="496" y2="0">
        <stop offset="0" stop-color="#290e05"/>
        <stop offset="1" stop-color="#290e05"/>
    </linearGradient>
    <path d="m448 24c0-13.230469-10.769531-24-24-24h-32c-13.230469 0-24 10.769531-24 24v24h-195.558594l-76.441406 84.929688v27.070312h-96v208h96v128h400v-448h-48zm-64 216v-128h16v128zm41.054688 16-17.054688 25.574219-17.054688-25.574219zm6.945312-16h-16v-128h16zm0-144h-48v-16h48zm-40-80h32c4.414062 0 8 3.59375 8 8v40h-48v-40c0-4.40625 3.585938-8 8-8zm-224 60.847656v51.152344h-46.039062zm-152 99.152344h320v176h-320zm464-112v416h-368v-112h240v-208h-240v-16h72v-80h184v186.425781l40 60 40-60v-186.425781zm-128 32h-152v-16h152zm0 32h-152v-16h152zm-224 256h336v16h-336zm16 48h-16v-16h16zm16-16h304v16h-304zm-32 32h304v16h-304zm320 0h16v16h-16zm-240-208v8h-16v-8c0-8.824219-7.175781-16-16-16s-16 7.175781-16 16 7.175781 16 16 16c17.648438 0 32 14.351562 32 32 0 14.863281-10.230469 27.289062-24 30.863281v17.136719h-16v-17.136719c-13.769531-3.574219-24-16-24-30.863281v-8h16v8c0 8.824219 7.175781 16 16 16s16-7.175781 16-16-7.175781-16-16-16c-17.648438 0-32-14.351562-32-32 0-14.863281 10.230469-27.289062 24-30.863281v-17.136719h16v17.136719c13.769531 3.574219 24 16 24 30.863281zm96 16h16v16h-16zm-272 0h16v16h-16zm240 0h16v16h-16zm-32 0h16v16h-16zm-176 0h16v16h-16zm32 0h16v16h-16zm0 0"
          fill="url(#a)"/>
</svg>