<?xml version="1.0"?>
<svg xmlns="http://www.w3.org/2000/svg" xmlns:xlink="http://www.w3.org/1999/xlink" version="1.1" id="Capa_1" x="0px" y="0px" viewBox="0 0 512 512" style="enable-background:new 0 0 512 512;" xml:space="preserve" width="512px" height="512px" class=""><g><circle style="fill:#142C88" cx="256" cy="256" r="256" data-original="#A05620" class="active-path" data-old_color="#102887"/><g>
	
		<rect x="8.099" y="229.459" transform="matrix(-0.2513 -0.9679 0.9679 -0.2513 -77.8179 416.1691)" style="fill:#CC6D30;" width="227.901" height="17.444" data-original="#CC6D30" class=""/>
	<path style="fill:#CC6D30;" d="M70.363,130.09L18.171,331.076l-3.051,11.766c-1.411-3.877-2.717-7.795-3.929-11.766   c-2.132-6.969-3.981-14.054-5.517-21.264l47.804-184.101L70.363,130.09z" data-original="#CC6D30" class=""/>
	<path style="fill:#CC6D30;" d="M506.326,309.833c-1.536,7.199-3.385,14.284-5.517,21.243c-1.212,3.971-2.529,7.899-3.929,11.786   L441.626,130.09l16.886-4.378L506.326,309.833z" data-original="#CC6D30" class=""/>
	
		<rect x="381.226" y="124.234" transform="matrix(-0.9679 -0.2513 0.2513 -0.9679 707.5272 566.7196)" style="fill:#CC6D30;" width="17.444" height="227.901" data-original="#CC6D30" class=""/>
</g><g>
	<path style="fill:#F4BF23;" d="M206.547,105.469c-49.449,0-157.693,64.246-184.314,35.145   c-9.995-10.926-11.817-22.488-10.193-32.668c0.341-2.135,2.198-3.697,4.36-3.697l0,0c1.761,0,3.381,1.034,4.047,2.666   c4.283,10.489,16.16,18.021,35.514,14.315c36.441-6.978,91.483-65.211,200.035-65.211s163.594,58.232,200.035,65.211   c19.353,3.706,31.23-3.826,35.514-14.315c0.666-1.63,2.286-2.666,4.047-2.666l0,0c2.162,0,4.02,1.562,4.36,3.697   c1.624,10.179-0.197,21.741-10.193,32.668c-26.621,29.1-134.864-35.145-184.314-35.145" data-original="#F4BF23" class=""/>
	<path style="fill:#F4BF23;" d="M274.296,135.22v376.132C268.257,511.781,262.154,512,256,512c-0.387,0-0.773,0-1.16-0.01   c-5.768-0.021-11.483-0.23-17.147-0.648V135.22H274.296z" data-original="#F4BF23" class=""/>
</g><g>
	<path style="fill:#D9A60C" d="M254.84,135.22V511.99c-5.768-0.021-11.483-0.23-17.147-0.648V135.22H254.84z" data-original="#D9A60C" class=""/>
	<circle style="fill:#D9A60C" cx="256" cy="105.472" r="49.445" data-original="#D9A60C" class=""/>
</g><circle style="fill:#F4BF23;" cx="256" cy="105.472" r="26.47" data-original="#F4BF23" class=""/><circle style="fill:#D9A60C" cx="256" cy="447.154" r="49.445" data-original="#D9A60C" class=""/><g>
	<circle style="fill:#F4BF23;" cx="256" cy="447.154" r="26.47" data-original="#F4BF23" class=""/>
	<path style="fill:#F4BF23;" d="M500.809,331.076c-5.601,18.296-13.197,35.725-22.538,52.015   c-13.667,5.162-28.473,7.983-43.948,7.983c-45.181,0-84.658-24.064-106.611-59.998L500.809,331.076L500.809,331.076z" data-original="#F4BF23" class=""/>
</g><path style="fill:#D9A60C" d="M382.534,331.078c19.838,32.469,24.922,55.181,64.662,59.268c-4.237,0.436-8.517,0.725-12.871,0.725  c-45.189,0-84.657-24.063-106.61-59.994h54.818V331.078z" data-original="#D9A60C" class=""/><path style="fill:#F4BF23;" d="M184.278,331.076c-21.953,35.934-61.419,59.998-106.611,59.998c-15.475,0-30.281-2.821-43.938-7.973  v-0.01c-7.325-12.769-13.563-26.216-18.61-40.249c-1.411-3.877-2.717-7.795-3.929-11.766H184.278z" data-original="#F4BF23" class=""/><g>
	<path style="fill:#D9A60C" d="M90.54,390.343c-4.242,0.439-8.516,0.731-12.873,0.731c-15.475,0-30.281-2.821-43.938-7.973   c-9.341-16.3-16.938-33.719-22.538-52.025h14.681C45.714,363.551,50.803,386.257,90.54,390.343z" data-original="#D9A60C" class=""/>
	<circle style="fill:#D9A60C" cx="256" cy="30.919" r="30.916" data-original="#D9A60C" class=""/>
</g><circle style="fill:#F4BF23;" cx="256" cy="30.919" r="11.16" data-original="#F4BF23" class=""/></g> </svg>
