<?xml version="1.0"?>
<svg xmlns="http://www.w3.org/2000/svg" xmlns:xlink="http://www.w3.org/1999/xlink" version="1.1" id="Layer_1" x="0px" y="0px" viewBox="0 0 511.999 511.999" style="enable-background:new 0 0 511.999 511.999;" xml:space="preserve" width="512px" height="512px" class=""><g><path style="fill:#555C83" d="M441.379,79.449c-4.875,0-8.828,3.953-8.828,8.828c0,4.866-3.961,8.828-8.828,8.828  c-4.866,0-8.828-3.961-8.828-8.828c0-4.095-2.819-7.656-6.806-8.595l-150.068-35.31c-0.09-0.021-0.177,0.01-0.267-0.008  c-0.6-0.125-1.22-0.062-1.846-0.055c-0.556,0.008-1.109-0.054-1.644,0.054c-0.096,0.02-0.189-0.014-0.286,0.009l-150.068,35.31  c-3.987,0.94-6.806,4.5-6.806,8.595c0,4.866-3.961,8.828-8.828,8.828c-4.866,0-8.828-3.961-8.828-8.828  c0-4.875-3.953-8.828-8.828-8.828s-8.828,3.953-8.828,8.828c0,14.603,11.88,26.483,26.483,26.483  c12.099,0,22.327-8.156,25.478-19.254l142.245-33.468l142.245,33.468c3.15,11.1,13.379,19.254,25.478,19.254  c14.603,0,26.483-11.88,26.483-26.483C450.206,83.402,446.254,79.449,441.379,79.449z" data-original="#707487" class="active-path" data-old_color="#545977"/><path style="fill:#92A3C9" d="M167.725,494.343l6.137-18.412c1.607-4.82,6.117-8.071,11.198-8.071h141.88  c5.08,0,9.591,3.251,11.198,8.071l6.137,18.412H167.725z" data-original="#C7CFE2" class="" data-old_color="#A2B1D3"/><path style="fill:#798AB5" d="M282.483,467.86h-52.965v-17.655c0-4.875,3.953-8.828,8.828-8.828h35.31  c4.875,0,8.828,3.953,8.828,8.828V467.86z" data-original="#AFB9D2" class="" data-old_color="#8797BF"/><path style="fill:#92A3C9" d="M264.828,441.378h-17.655c-4.875,0-8.828-3.953-8.828-8.828l0,0c0-4.875,3.953-8.828,8.828-8.828  h17.655c4.875,0,8.828,3.953,8.828,8.828l0,0C273.656,437.425,269.704,441.378,264.828,441.378z" data-original="#C7CFE2" class="" data-old_color="#A2B1D3"/><g>
	<path style="fill:#798AB5" d="M247.173,423.723l-12.105-12.105c-3.533-3.533-5.404-8.398-5.148-13.388l17.253-336.435h17.655   l17.253,336.435c0.256,4.99-1.614,9.855-5.148,13.388l-12.105,12.105H247.173z" data-original="#AFB9D2" class="" data-old_color="#8797BF"/>
	<path style="fill:#798AB5" d="M255.681,467.86h-70.62c-5.08,0-9.591,3.251-11.198,8.071l-6.137,18.412h70.62l6.137-18.412   C246.09,471.111,250.6,467.86,255.681,467.86z" data-original="#AFB9D2" class="" data-old_color="#8797BF"/>
	<path style="fill:#798AB5" d="M344.276,511.998H167.725c-4.875,0-8.828-3.953-8.828-8.828v-8.828c0-4.875,3.953-8.828,8.828-8.828   h176.551c4.875,0,8.828,3.953,8.828,8.828v8.828C353.104,508.045,349.152,511.998,344.276,511.998z" data-original="#AFB9D2" class="" data-old_color="#8797BF"/>
</g><g>
	<path style="fill:#536297" d="M229.518,503.17v-8.828c0-4.875,3.953-8.828,8.828-8.828h-70.62c-4.875,0-8.828,3.953-8.828,8.828   v8.828c0,4.875,3.953,8.828,8.828,8.828h70.62C233.471,511.998,229.518,508.045,229.518,503.17z" data-original="#959CB3" class="" data-old_color="#5E6FAA"/>
	<path style="fill:#536297" d="M256.001,441.378h-17.655c-4.875,0-8.828,3.953-8.828,8.828v17.655h17.655v-17.655   C247.173,445.329,251.126,441.378,256.001,441.378z" data-original="#959CB3" class="" data-old_color="#5E6FAA"/>
</g><path style="fill:#798AB5" d="M256.001,432.55c0-4.875,3.953-8.828,8.828-8.828h-17.655c-4.875,0-8.828,3.953-8.828,8.828  c0,4.875,3.953,8.828,8.828,8.828h17.655C259.953,441.378,256.001,437.425,256.001,432.55z" data-original="#AFB9D2" class="" data-old_color="#8797BF"/><path style="fill:#536297" d="M247.942,398.229l8.502-336.435h-9.27l-17.253,336.435c-0.256,4.99,1.614,9.855,5.149,13.388  l12.105,12.106h9.27l-5.965-12.106C248.738,408.084,247.817,403.219,247.942,398.229z" data-original="#959CB3" class="" data-old_color="#5E6FAA"/><path style="fill:#798AB5" d="M256.001,0.001L256.001,0.001c-4.875,0-8.828,3.953-8.828,8.828v26.483h17.655V8.829  C264.828,3.953,260.877,0.001,256.001,0.001z" data-original="#AFB9D2" class="" data-old_color="#8797BF"/><circle style="fill:#536297" cx="255.997" cy="52.964" r="26.483" data-original="#959CB3" class="" data-old_color="#5E6FAA"/><circle style="fill:#798AB5" cx="255.997" cy="52.964" r="8.828" data-original="#AFB9D2" class="" data-old_color="#8797BF"/><path style="fill:#536297" d="M167.721,379.589c-3.858,0-7.396-2.548-8.495-6.444L88.278,120.88L17.331,373.145  c-1.327,4.69-6.198,7.418-10.888,6.112c-4.694-1.323-7.431-6.198-6.112-10.888L79.779,85.889c1.074-3.81,4.543-6.44,8.5-6.44  s7.426,2.63,8.5,6.44l79.448,282.481c1.319,4.69-1.418,9.565-6.112,10.888C169.317,379.481,168.51,379.589,167.721,379.589z" data-original="#959CB3" class="" data-old_color="#5E6FAA"/><path style="fill:#798AB5" d="M167.725,379.585H8.83c-4.875,0-8.828-3.953-8.828-8.828l0,0c0-4.875,3.953-8.828,8.828-8.828  h158.896c4.875,0,8.828,3.953,8.828,8.828l0,0C176.553,375.633,172.602,379.585,167.725,379.585z" data-original="#AFB9D2" class="" data-old_color="#8797BF"/><path style="fill:#536297" d="M61.795,370.758c0-4.875,3.953-8.828,8.828-8.828H8.83c-4.875,0-8.828,3.953-8.828,8.828  s3.953,8.828,8.828,8.828h61.793C65.748,379.585,61.795,375.633,61.795,370.758z" data-original="#959CB3" class="" data-old_color="#5E6FAA"/><path style="fill:#92A3C9" d="M139.16,414.895H37.397c-6.687,0-12.801-3.778-15.791-9.76L8.83,379.585h158.896l-12.776,25.55  C151.959,411.117,145.846,414.895,139.16,414.895z" data-original="#C7CFE2" class="" data-old_color="#A2B1D3"/><path style="fill:#798AB5" d="M83.398,405.135l-12.776-25.55H8.83l12.776,25.55c2.99,5.981,9.103,9.76,15.791,9.76H99.19  C92.503,414.895,86.389,411.116,83.398,405.135z" data-original="#AFB9D2" class="" data-old_color="#8797BF"/><path style="fill:#536297" d="M503.164,379.589c-3.858,0-7.396-2.548-8.495-6.444L423.72,120.88l-70.948,252.265  c-1.327,4.69-6.198,7.418-10.888,6.112c-4.694-1.323-7.431-6.198-6.112-10.888l79.448-282.481c1.074-3.81,4.543-6.44,8.5-6.44  s7.426,2.63,8.5,6.44l79.448,282.481c1.319,4.69-1.418,9.565-6.112,10.888C504.758,379.481,503.953,379.589,503.164,379.589z" data-original="#959CB3" class="" data-old_color="#5E6FAA"/><path style="fill:#798AB5" d="M503.168,379.585H344.273c-4.875,0-8.828-3.953-8.828-8.828l0,0c0-4.875,3.953-8.828,8.828-8.828  h158.896c4.875,0,8.828,3.953,8.828,8.828l0,0C511.996,375.633,508.043,379.585,503.168,379.585z" data-original="#AFB9D2" class="" data-old_color="#8797BF"/><path style="fill:#536297" d="M397.238,370.758c0-4.875,3.953-8.828,8.828-8.828h-61.793c-4.875,0-8.828,3.953-8.828,8.828  s3.953,8.828,8.828,8.828h61.793C401.19,379.585,397.238,375.633,397.238,370.758z" data-original="#959CB3" class="" data-old_color="#5E6FAA"/><path style="fill:#92A3C9" d="M474.601,414.895H372.839c-6.687,0-12.801-3.778-15.791-9.76l-12.775-25.55h158.896l-12.776,25.55  C487.402,411.117,481.289,414.895,474.601,414.895z" data-original="#C7CFE2" class="" data-old_color="#A2B1D3"/><path style="fill:#798AB5" d="M418.841,405.135l-12.776-25.55h-61.793l12.776,25.55c2.99,5.981,9.103,9.76,15.791,9.76h61.793  C427.944,414.895,421.831,411.116,418.841,405.135z" data-original="#AFB9D2" class="" data-old_color="#8797BF"/></g> </svg>
