<svg height="496pt" viewBox="0 0 496 496" width="496pt" xmlns="http://www.w3.org/2000/svg"
     xmlns:xlink="http://www.w3.org/1999/xlink">
    <linearGradient id="a" gradientUnits="userSpaceOnUse" x1="248" x2="248" y1="496" y2="0">
        <stop offset="0" stop-color="#290e05"/>
        <stop offset="1" stop-color="#290e05"/>
    </linearGradient>
    <path d="m162.992188 401.671875-26.992188-7.703125v-2.128906c9.96875-7.511719 16-19.328125 16-31.832032v-14.335937c0-21.503906-16.007812-39.726563-36.449219-41.503906-11.207031-.992188-22.335937 2.800781-30.574219 10.351562-8.25 7.550781-12.976562 18.304688-12.976562 29.480469v16c0 12.503906 6.03125 24.328125 16 31.832031v2.128907l-26.992188 7.710937c-17.078124 4.886719-29.007812 20.703125-29.007812 38.464844v23.863281h160v-23.863281c0-17.761719-11.929688-33.578125-29.007812-38.464844zm13.007812 46.328125h-128v-7.863281c0-10.664063 7.160156-20.152344 17.40625-23.082031l38.59375-11.023438v-23.070312l-3.976562-2.3125c-7.527344-4.382813-12.023438-12.105469-12.023438-20.648438v-16c0-6.703125 2.839844-13.160156 7.792969-17.695312 5.007812-4.601563 11.503906-6.792969 18.382812-6.207032 12.230469 1.0625 21.824219 12.285156 21.824219 25.566406v14.335938c0 8.542969-4.496094 16.265625-12.023438 20.648438l-3.976562 2.3125v23.070312l38.59375 11.023438c10.246094 2.9375 17.40625 12.425781 17.40625 23.082031zm72-192c13.230469 0 24-10.769531 24-24s-10.769531-24-24-24-24 10.769531-24 24 10.769531 24 24 24zm0-32c4.40625 0 8 3.59375 8 8s-3.59375 8-8 8-8-3.59375-8-8 3.59375-8 8-8zm224 0h-121.472656c-3.3125-9.289062-12.113282-16-22.527344-16h-16.726562l144-208h-99.648438l-107.625 167.894531-107.625-167.894531h-99.648438l144 208h-16.726562c-10.414062 0-19.214844 6.710938-22.527344 16h-121.472656c-13.230469 0-24 10.769531-24 24v224c0 13.230469 10.769531 24 24 24h448c13.230469 0 24-10.769531 24-24v-224c0-13.230469-10.769531-24-24-24zm8 24v8h-128v-16h120c4.40625 0 8 3.59375 8 8zm-115.625-232h60.351562l-128.085937 185.015625c-8.617187-12.121094-21.367187-20.359375-35.800781-23.503906zm-232.75 0 103.535156 161.511719c-14.433594 3.144531-27.183594 11.382812-35.800781 23.503906l-128.085937-185.015625zm28.375 216c0-4.40625 3.59375-8 8-8h36.945312l3.894532-7.800781c7.472656-14.925781 22.472656-24.199219 39.160156-24.199219s31.6875 9.273438 39.160156 24.191406l3.894532 7.808594h36.945312c4.40625 0 8 3.59375 8 8v32c0 4.40625-3.59375 8-8 8h-160c-4.40625 0-8-3.59375-8-8zm-136 8h120v16h-128v-8c0-4.40625 3.59375-8 8-8zm-8 232v-200h129.472656c3.3125 9.289062 12.113282 16 22.527344 16h40v192h-184c-4.40625 0-8-3.59375-8-8zm456 8h-248v-192h104c10.414062 0 19.214844-6.710938 22.527344-16h129.472656v200c0 4.40625-3.59375 8-8 8zm-232-176h224v16h-224zm0 32h224v16h-224zm112 128h112v-48h-112zm48-16v-16h16v16zm48 0h-16v-16h16zm-80-16h16v16h-16zm32-48h-160v-16h160zm32-16v16h-16v-16zm0 0"
          fill="url(#a)"/>
</svg>