<svg height="495pt" viewBox="0 0 495.962 495" width="495pt" xmlns="http://www.w3.org/2000/svg"
     xmlns:xlink="http://www.w3.org/1999/xlink">
    <linearGradient id="a" gradientUnits="userSpaceOnUse" x1="247.9816" x2="247.9816" y1="495.7506" y2=".481">
        <stop offset="0" stop-color="#290e05"/>
        <stop offset="1" stop-color="#290e05"/>
    </linearGradient>
    <path d="m384 344.480469c44.113281 0 80-35.886719 80-80s-35.886719-80-80-80-80 35.886719-80 80 35.886719 80 80 80zm0-144c35.289062 0 64 28.710937 64 64 0 35.289062-28.710938 64-64 64s-64-28.710938-64-64c0-35.289063 28.710938-64 64-64zm-108.65625 285.679687 50.726562-20.296875 29.890626 29.882813 28.039062-98.128906 28.039062 98.136718 29.890626-29.882812 50.726562 20.296875-41.921875-134.128907c11.441406-5.007812 20.1875-15.140624 23.128906-27.503906 12.226563-8.847656 18.519531-24.03125 16.152344-38.949218 7.9375-12.898438 7.921875-29.410157 0-42.207032 2.367187-14.90625-3.917969-30.074218-16.144531-38.929687-3.527344-14.832031-15.335938-26.550781-29.847656-29.863281-8.855469-12.199219-24.039063-18.488282-38.917969-16.113282-12.945313-7.960937-29.503907-7.910156-42.226563 0-14.917968-2.351562-30.0625 3.929688-38.910156 16.144532-7.777344 1.855468-14.648438 6.03125-19.960938 11.6875v-185.824219h-227.320312l-76.6875 76.6875v331.3125h299.625zm72.703125-20.949218-18.117187-18.121094-29.273438 11.703125 30.328125-97.0625c8.792969 7.214843 20.40625 10.582031 31.910156 8.757812 3.417969 2.105469 7.105469 3.609375 10.890625 4.601563zm90.023437-18.113282-18.117187 18.121094-25.738281-90.097656c3.808594-.984375 7.496094-2.496094 10.90625-4.617188 11.480468 1.816406 23.09375-1.542968 31.886718-8.757812l30.328126 97.0625zm-132.664062-230.945312 3.335938-2.007813.539062-3.816406c1.503906-10.613281 9.957031-19.070313 20.816406-20.613281l3.6875-.617188 1.886719-3.214844c5.457031-9.257812 16.535156-13.867187 26.921875-11.160156l3.789062.917969 3.082032-2.3125c8.566406-6.421875 20.511718-6.421875 29.414062.242187l3 2.0625 3.527344-.910156c10.433594-2.691406 21.480469 1.902344 26.929688 11.160156l2 3.328126 3.816406.542968c10.617187 1.503906 19.078125 9.96875 20.601562 20.71875l.574219 3.753906 3.273437 1.925782c9.246094 5.449218 13.832032 16.511718 11.160157 26.921875l-.929688 3.78125 2.320313 3.082031c6.433594 8.558594 6.433594 20.519531 0 29.078125l-2.25 3.546875.859375 3.328125c2.679687 10.398437-1.90625 21.46875-11.167969 26.917969l-3.335938 2.007812-.539062 3.816406c-1.503906 10.617188-9.957031 19.070313-20.816406 20.617188l-3.6875.613281-1.886719 3.21875c-5.464844 9.261719-16.535156 13.863281-26.921875 11.160157l-3.789062-.921876-3.082032 2.3125c-8.558594 6.433594-20.503906 6.441407-29.414062-.238281l-3-2.066406-3.527344.914063c-10.425781 2.695312-21.480469-1.90625-26.929688-11.160157l-2-3.328125-3.816406-.542968c-10.617187-1.507813-19.078125-9.96875-20.601562-20.722657l-.574219-3.75-3.273437-1.929687c-9.246094-5.449219-13.832032-16.511719-11.160157-26.917969l.929688-3.785156-2.320313-3.082031c-6.433594-8.558594-6.433594-20.519532.433594-29.710938l1.824219-2.910156-.859375-3.328125c-2.6875-10.402344 1.90625-21.472657 11.160156-26.921875zm-233.40625-188.359375v44.6875h-44.6875zm-56 364.6875v-304h72v-72h200v193.585937c-8.0625 8.933594-11.945312 21.183594-10.015625 33.3125-7.9375 12.894532-7.921875 29.40625 0 42.207032-1.929687 12.117187 1.953125 24.359374 10.015625 33.296874v73.597657zm288-49.777344c3.734375 3.992187 8.230469 7.195313 13.246094 9.378906l-13.246094 42.382813zm80-30.222656c22.054688 0 40-14.351563 40-32 0-17.648438-17.945312-32-40-32s-40 14.351562-40 32c0 17.648437 17.945312 32 40 32zm0-48c13.007812 0 24 7.328125 24 16s-10.992188 16-24 16-24-7.328125-24-16 10.992188-16 24-16zm-8-40c0-4.414063 3.585938-8 8-8s8 3.585937 8 8c0 4.417969-3.585938 8-8 8s-8-3.582031-8-8zm-29.65625 21.65625c-3.128906-3.128907-3.128906-8.191407 0-11.3125 3.128906-3.128907 8.191406-3.128907 11.3125 0 3.128906 3.128906 3.128906 8.191406 0 11.3125-3.121094 3.128906-8.191406 3.128906-11.3125 0zm64 0c-3.128906-3.128907-3.128906-8.191407 0-11.3125 3.128906-3.128907 8.191406-3.128907 11.3125 0 3.128906 3.128906 3.128906 8.191406 0 11.3125-3.121094 3.128906-8.191406 3.128906-11.3125 0zm-378.34375 2.34375h112v-144h-112zm16-128h80v112h-80zm128-72h-16v-16h16zm16-16h80v16h-80zm-16 48h-16v-16h16zm16-16h80v16h-80zm-32 72h112v16h-112zm0 32h112v16h-112zm96 48h-96v-16h96zm-224 48h112v16h-112zm0 32h112v16h-112zm0 32h112v16h-112zm0 32h112v16h-112zm224-80h-96v-16h96zm0 32h-96v-16h96zm-96 16h112v16h-112zm0 32h112v16h-112zm0 0"
          fill="url(#a)"/>
</svg>