<svg height="496pt" viewBox="0 0 496 496" width="496pt" xmlns="http://www.w3.org/2000/svg"
     xmlns:xlink="http://www.w3.org/1999/xlink">
    <linearGradient id="a" gradientUnits="userSpaceOnUse" x1="248" x2="248" y1="496" y2="0">
        <stop offset="0" stop-color="#290e05"/>
        <stop offset="1" stop-color="#290e05"/>
    </linearGradient>
    <path d="m368 224.40625v-139.71875l-84.6875-84.6875h-283.3125v448h256.496094c24.96875 29.320312 62.070312 48 103.503906 48 74.992188 0 136-61.007812 136-136 0-72.289062-56.734375-131.414062-128-135.59375zm-80-197.09375 52.6875 52.6875h-52.6875zm-272 404.6875v-416h256v80h80v128.40625c-71.265625 4.179688-128 63.304688-128 135.59375 0 26.457031 7.710938 51.089844 20.832031 72zm344 48c-66.167969 0-120-53.832031-120-120s53.832031-120 120-120 120 53.832031 120 120-53.832031 120-120 120zm48-208h-96c-13.230469 0-24 10.769531-24 24v32c0 13.230469 10.769531 24 24 24h24v72c0 13.230469 10.769531 24 24 24s24-10.769531 24-24v-72h24c13.230469 0 24-10.769531 24-24v-32c0-13.230469-10.769531-24-24-24zm-24 16v48h-48v-48zm-80 40v-32c0-4.40625 3.59375-8 8-8h8v48h-8c-4.40625 0-8-3.59375-8-8zm64 96c0 4.40625-3.59375 8-8 8s-8-3.59375-8-8v-72h16zm48-96c0 4.40625-3.59375 8-8 8h-8v-48h8c4.40625 0 8 3.59375 8 8zm-352-8c0 8.824219 7.175781 16 16 16 17.648438 0 32 14.351562 32 32 0 14.863281-10.238281 27.289062-24 30.863281v17.136719h-16v-17.136719c-13.761719-3.574219-24-16-24-30.863281h16c0 8.824219 7.175781 16 16 16s16-7.175781 16-16-7.175781-16-16-16c-17.648438 0-32-14.351562-32-32 0-14.863281 10.238281-27.289062 24-30.863281v-17.136719h16v17.136719c13.761719 3.574219 24 16 24 30.863281h-16c0-8.824219-7.175781-16-16-16s-16 7.175781-16 16zm160-234.425781-35.71875-53.574219h-120.5625l-35.71875 53.574219v106.425781h192zm-147.71875-37.574219h103.4375l21.335938 32h-146.109376zm67.71875 128h-32v-48h32zm16 0v-64h-64v64h-48v-80h160v80zm176-48h-96v-16h96zm0 32h-96v-16h96zm0 32h-96v-16h96zm-48 32h-256v-16h256zm-48 32h-208v-16h208zm0 0"
          fill="url(#a)"/>
</svg>